<svg width="40" height="40" viewBox="0 0 40 40" fill="none" xmlns="http://www.w3.org/2000/svg">
    <path d="M32.1668 13.2V21.7833C32.1668 26.9167 29.2334 29.1166 24.8334 29.1166H10.1834C9.43342 29.1166 8.71676 29.05 8.05009 28.9C7.63342 28.8334 7.23344 28.7167 6.86677 28.5834C4.36677 27.65 2.8501 25.4833 2.8501 21.7833V13.2C2.8501 8.06664 5.78342 5.8667 10.1834 5.8667H24.8334C28.5668 5.8667 31.2501 7.45002 31.9668 11.0667C32.0834 11.7334 32.1668 12.4166 32.1668 13.2Z" stroke="white" stroke-width="1.5" stroke-miterlimit="10" stroke-linecap="round" stroke-linejoin="round"/>
    <path d="M37.1687 18.2002V26.7835C37.1687 31.9169 34.2353 34.1168 29.8353 34.1168H15.1853C13.952 34.1168 12.8353 33.9502 11.8687 33.5836C9.88535 32.8502 8.53534 31.3336 8.052 28.9002C8.71867 29.0502 9.43533 29.1168 10.1853 29.1168H24.8353C29.2353 29.1168 32.1687 26.9169 32.1687 21.7835V13.2002C32.1687 12.4168 32.102 11.7169 31.9687 11.0669C35.1353 11.7336 37.1687 13.9668 37.1687 18.2002Z" stroke="white" stroke-width="1.5" stroke-miterlimit="10" stroke-linecap="round" stroke-linejoin="round"/>
    <path d="M17.4974 21.8998C19.9275 21.8998 21.8975 19.9298 21.8975 17.4998C21.8975 15.0697 19.9275 13.0997 17.4974 13.0997C15.0674 13.0997 13.0974 15.0697 13.0974 17.4998C13.0974 19.9298 15.0674 21.8998 17.4974 21.8998Z" stroke="white" stroke-width="1.5" stroke-miterlimit="10" stroke-linecap="round" stroke-linejoin="round"/>
    <path d="M7.9668 13.8333V21.1666" stroke="white" stroke-width="1.5" stroke-miterlimit="10" stroke-linecap="round" stroke-linejoin="round"/>
    <path d="M27.0364 13.8339V21.1672" stroke="white" stroke-width="1.5" stroke-miterlimit="10" stroke-linecap="round" stroke-linejoin="round"/>
</svg>
